<svg width="60" height="60" viewBox="0 0 60 60" fill="none" xmlns="http://www.w3.org/2000/svg">
<path fill-rule="evenodd" clip-rule="evenodd" d="M17.5 30C17.5 23.0964 23.0964 17.5 30 17.5C36.9036 17.5 42.5 23.0964 42.5 30C42.5 36.9036 36.9036 42.5 30 42.5C23.0964 42.5 17.5 36.9036 17.5 30ZM30 22.5C25.8578 22.5 22.5 25.8578 22.5 30C22.5 34.1422 25.8578 37.5 30 37.5C34.1422 37.5 37.5 34.1422 37.5 30C37.5 25.8578 34.1422 22.5 30 22.5Z" fill="black" fill-opacity="0.65"/>
<path d="M46.25 16.25C46.25 17.6307 45.1307 18.75 43.75 18.75C42.3693 18.75 41.25 17.6307 41.25 16.25C41.25 14.8693 42.3693 13.75 43.75 13.75C45.1307 13.75 46.25 14.8693 46.25 16.25Z" fill="black" fill-opacity="0.65"/>
<path fill-rule="evenodd" clip-rule="evenodd" d="M5 17.5C5 10.5964 10.5964 5 17.5 5H42.5C49.4036 5 55 10.5964 55 17.5V42.5C55 49.4036 49.4036 55 42.5 55H17.5C10.5964 55 5 49.4036 5 42.5V17.5ZM17.5 10C13.3579 10 10 13.3579 10 17.5V42.5C10 46.6422 13.3579 50 17.5 50H42.5C46.6422 50 50 46.6422 50 42.5V17.5C50 13.3579 46.6422 10 42.5 10H17.5Z" fill="black" fill-opacity="0.65"/>
</svg>
