<svg width="60" height="60" viewBox="0 0 60 60" fill="none" xmlns="http://www.w3.org/2000/svg">
<path fill-rule="evenodd" clip-rule="evenodd" d="M48.2586 11.1204C47.0459 9.51921 45.5904 8.25354 43.8707 7.41069C41.8394 6.41507 39.5952 6.08592 37.2243 6.3241C33.3218 6.71616 30.5806 8.90899 29.0305 12.0892C27.7771 14.6607 27.3192 17.8145 27.4145 21.1481C24.3906 22.1751 21.7228 21.5011 19.3025 19.9559C16.366 18.0813 13.8878 14.9477 12.1236 12.0721C11.5995 11.2178 10.6158 10.759 9.62448 10.9067C8.63314 11.0543 7.82578 11.7797 7.57332 12.7497C6.31927 17.5677 4.93177 23.9362 7.65961 31.0224C9.1248 34.8285 12.0662 38.0007 16.1894 40.634C12.221 42.2643 9.09826 42.7005 6.71801 42.2469C5.51121 42.0169 4.31614 42.6978 3.89872 43.8532C3.48129 45.0086 3.96523 46.2961 5.04037 46.8905C5.09754 46.9222 5.16368 46.959 5.2385 47.0006C6.74198 47.8375 11.7521 50.6263 17.9736 52.3404C24.4396 54.1219 32.7596 54.8924 39.8496 50.4626C52.8925 42.3133 52.7987 28.4873 52.7553 22.0749C52.7545 21.9595 52.7537 21.8465 52.753 21.7359C52.8989 21.4979 53.0806 21.234 53.3188 20.8943L53.3632 20.8309C53.7279 20.3111 54.199 19.6396 54.6327 18.8183C55.5834 17.0178 56.25 14.7134 56.25 11.1797C56.25 10.1865 55.6621 9.28752 54.7522 8.88936C53.8424 8.4912 52.7831 8.66936 52.0536 9.34327C50.5193 10.7606 49.2955 11.1874 48.2586 11.1204ZM41.6702 11.9004C40.595 11.3734 39.3084 11.1399 37.7241 11.2991C35.694 11.503 34.3837 12.5184 33.525 14.2799C32.5961 16.1858 32.2012 19.0137 32.5009 22.547C32.5871 23.5628 32.0478 24.5292 31.1381 24.9892C25.6286 27.7754 20.605 26.7194 16.612 24.1703C14.5821 22.8744 12.8021 21.1905 11.2896 19.427C10.8887 22.5238 10.9988 25.7788 12.3258 29.2262C13.6175 32.5817 16.8543 35.7534 22.7226 38.5193C23.5752 38.9211 24.1293 39.7683 24.1557 40.7104C24.1822 41.6525 23.6766 42.5295 22.848 42.9786C20.253 44.3851 17.7632 45.49 15.3949 46.2455C16.6139 46.703 17.9261 47.141 19.3016 47.52C25.2676 49.1637 31.8795 49.5466 37.2002 46.2222C47.8118 39.592 47.7745 28.4585 47.7526 21.938C47.7517 21.652 47.7507 21.3749 47.7507 21.1074C47.7507 20.7347 47.834 20.3668 47.9946 20.0305C48.3717 19.2405 48.8405 18.5718 49.2051 18.0519L49.2248 18.0239C49.616 17.466 49.9284 17.0193 50.2112 16.4837C50.3078 16.3008 50.4044 16.1005 50.4978 15.8772C49.0817 16.2353 47.6013 16.2299 46.0781 15.7748C45.5134 15.6061 45.0265 15.2433 44.7033 14.7505C43.7731 13.3324 42.7505 12.4299 41.6702 11.9004Z" fill="black" fill-opacity="0.65"/>
</svg>
