<svg width="145" height="145" viewBox="0 0 145 145" fill="none" xmlns="http://www.w3.org/2000/svg">
<path fill-rule="evenodd" clip-rule="evenodd" d="M72.5 0C32.4595 0 0 32.4595 0 72.5C0 112.541 32.4595 145 72.5 145C112.541 145 145 112.541 145 72.5C145 32.4595 112.541 0 72.5 0ZM12.0833 72.5C12.0833 39.1328 39.1328 12.0833 72.5 12.0833C105.867 12.0833 132.917 39.1328 132.917 72.5C132.917 99.6898 114.956 122.685 90.251 130.267C90.9258 118.056 90.6943 110.492 89.5565 107.576C88.3554 104.497 87.3763 103.235 86.7893 102.479C86.4046 101.983 86.1883 101.704 86.1883 101.273C86.1883 100.548 86.6985 100.023 87.7196 99.6972C96.6217 97.7294 102.591 92.2587 105.628 83.2847C109.835 70.8512 103.829 61.8099 101.399 58.1518C101.198 57.8496 101.022 57.5842 100.878 57.3566C98.9885 54.3738 101.464 47.1141 104.42 41.3045C94.3675 39.2892 90.5281 43.9597 88.3262 46.6383C87.4269 47.7323 86.8007 48.4939 86.136 48.3321C85.5422 48.1876 84.9029 47.9066 84.136 47.5695C81.9422 46.6051 78.7042 45.1817 72.5 45.1817C64.8063 45.1817 59.7089 47.8691 58.9295 48.28C58.8607 48.3162 58.8253 48.3321 58.8253 48.3321C54.781 42.6959 49.0381 40.3535 41.596 41.3045C43.6456 49.4955 43.7997 54.846 42.0582 57.3566C39.4457 61.1224 34.5487 69.8825 38.3501 83.2847C42.1518 96.6872 55.992 99.6972 58.6265 99.6972L58.6439 99.7011C58.8532 99.7462 60.7919 100.165 60.2097 101.803C60.0954 102.238 60.0195 102.832 59.9339 103.5C59.6593 105.645 59.286 108.561 57.2285 109.509C54.5297 110.753 48.5762 111.432 46.0858 109.88C45.2561 109.363 44.6602 108.281 43.9423 106.979C42.5056 104.371 40.5807 100.878 35.3166 99.2525C27.4227 96.815 27.9173 100.038 29.8875 100.829C30.3214 101.003 30.8964 101.166 31.5527 101.352C33.8768 102.01 37.2211 102.957 38.9352 105.715C39.4376 106.524 39.9545 107.409 40.4827 108.314C42.2658 111.369 44.1767 114.642 46.0858 115.898C47.7358 116.983 51.6901 117.417 57.9486 117.201C57.6765 123.109 57.5312 127.723 57.5125 131.043C31.3952 124.377 12.0833 100.694 12.0833 72.5Z" fill="black" fill-opacity="0.65"/>
</svg>
