<svg width="60" height="60" viewBox="0 0 60 60" fill="none" xmlns="http://www.w3.org/2000/svg">
<path fill-rule="evenodd" clip-rule="evenodd" d="M5.13889 0C2.28784 0 0 2.32022 0 5.15342V54.8466C0 57.6798 2.28785 60 5.13889 60H54.8611C57.7121 60 60 57.6798 60 54.8466V5.15342C60 2.32022 57.7121 0 54.8611 0H5.13889ZM5 5.15342C5 5.05573 5.07511 5 5.13889 5H54.8611C54.9249 5 55 5.05573 55 5.15342V54.8466C55 54.9442 54.9249 55 54.8611 55H39.1857V40.6916H46.9881L48.3269 31.5281H39.1857V25.4151C39.1857 23.7276 40.5537 22.3596 42.2412 22.3596H48.3269V11.665H37.0739L36.9973 11.6654C32.5953 11.7077 29.0609 15.3105 29.1032 19.7126L29.1332 22.8301L29.0259 31.5281H20.8334V40.6916H29.1332V55H5.13889C5.0751 55 5 54.9442 5 54.8466V5.15342Z" fill="black" fill-opacity="0.65"/>
</svg>
