<svg width="1422" height="249" viewBox="0 0 1422 249" fill="none" xmlns="http://www.w3.org/2000/svg">
<path d="M62.752 241H57.252C57.252 244.038 59.7144 246.5 62.752 246.5V241ZM62.752 57.832H68.252C68.252 54.7944 65.7896 52.332 62.752 52.332V57.832ZM6.016 57.832H0.516C0.516 60.8696 2.97843 63.332 6.016 63.332L6.016 57.832ZM6.016 25V19.5C2.97843 19.5 0.516 21.9624 0.516 25H6.016ZM169.456 25H174.956C174.956 21.9624 172.494 19.5 169.456 19.5V25ZM169.456 57.832V63.332C172.494 63.332 174.956 60.8696 174.956 57.832H169.456ZM113.296 57.832V52.332C110.258 52.332 107.796 54.7944 107.796 57.832H113.296ZM113.296 241V246.5C116.334 246.5 118.796 244.038 118.796 241H113.296ZM68.252 241V57.832H57.252V241H68.252ZM62.752 52.332H6.016V63.332H62.752V52.332ZM11.516 57.832V25H0.516V57.832H11.516ZM6.016 30.5H169.456V19.5H6.016V30.5ZM163.956 25V57.832H174.956V25H163.956ZM169.456 52.332H113.296V63.332H169.456V52.332ZM107.796 57.832V241H118.796V57.832H107.796ZM113.296 235.5H62.752V246.5H113.296V235.5ZM302.456 241V246.5C304.021 246.5 305.513 245.833 306.556 244.666C307.599 243.499 308.096 241.942 307.921 240.387L302.456 241ZM253.64 241H248.14C248.14 244.038 250.602 246.5 253.64 246.5V241ZM253.64 217.672H259.14C259.14 215.264 257.574 213.137 255.275 212.421C252.976 211.705 250.479 212.567 249.112 214.549L253.64 217.672ZM236.36 242.728L237.694 248.064C238.992 247.739 240.128 246.952 240.887 245.851L236.36 242.728ZM233.624 243.16L233.126 237.683C232.963 237.697 232.801 237.719 232.64 237.749L233.624 243.16ZM205.544 239.992L203.845 245.223C203.866 245.23 203.886 245.236 203.907 245.243L205.544 239.992ZM186.104 229.624L182.597 233.861C182.612 233.873 182.626 233.885 182.641 233.897L186.104 229.624ZM172.712 212.632L167.764 215.035C167.774 215.054 167.783 215.073 167.792 215.092L172.712 212.632ZM170.552 172.744L165.386 170.856L165.386 170.856L170.552 172.744ZM178.04 159.352L173.806 155.841C173.789 155.862 173.772 155.883 173.755 155.903L178.04 159.352ZM189.272 149.128L192.37 153.672L192.37 153.672L189.272 149.128ZM202.808 142.072L204.761 147.213C204.78 147.206 204.798 147.199 204.816 147.192L202.808 142.072ZM217.784 137.896L218.705 143.318C218.731 143.314 218.758 143.309 218.785 143.304L217.784 137.896ZM244.424 136.888L243.954 142.368L243.967 142.369L244.424 136.888ZM253.496 138.04L252.494 143.448C254.125 143.75 255.804 143.3 257.066 142.224C258.327 141.148 259.035 139.56 258.994 137.903L253.496 138.04ZM252.632 127.528L247.19 128.328C247.191 128.336 247.193 128.344 247.194 128.352L252.632 127.528ZM250.04 119.032L254.919 116.495L254.919 116.495L250.04 119.032ZM245 113.416L242.047 118.056L242.047 118.056L245 113.416ZM213.464 114.28L214.765 119.624C214.787 119.619 214.808 119.613 214.83 119.608L213.464 114.28ZM193.16 120.328L188.365 123.023C189.686 125.372 192.514 126.419 195.046 125.494L193.16 120.328ZM178.184 93.688L175.932 88.67C174.523 89.3025 173.444 90.4987 172.96 91.966C172.477 93.4334 172.632 95.0364 173.389 96.3832L178.184 93.688ZM200.216 85.624L201.699 90.9203C201.718 90.915 201.737 90.9095 201.756 90.904L200.216 85.624ZM216.488 81.88L215.504 76.4687C215.499 76.4696 215.494 76.4705 215.489 76.4714L216.488 81.88ZM268.76 84.76L266.76 89.8837C266.785 89.8934 266.81 89.903 266.835 89.9124L268.76 84.76ZM287.336 97.576L283.027 100.994C283.048 101.021 283.07 101.048 283.092 101.075L287.336 97.576ZM296.552 117.448L291.169 118.578C291.174 118.604 291.18 118.629 291.186 118.655L296.552 117.448ZM299.144 211.48H293.644C293.644 211.685 293.655 211.89 293.678 212.093L299.144 211.48ZM253.64 166.84H259.14C259.14 164.066 257.074 161.727 254.322 161.382L253.64 166.84ZM246.008 166.12L245.422 171.589C245.491 171.596 245.56 171.602 245.629 171.607L246.008 166.12ZM228.008 167.128L226.497 161.84C226.483 161.844 226.469 161.847 226.456 161.851L228.008 167.128ZM219.224 171.448L222.498 175.868L222.498 175.868L219.224 171.448ZM212.888 178.792L208.065 176.147L208.065 176.147L212.888 178.792ZM212.024 198.376L217.166 196.425L217.166 196.425L212.024 198.376ZM216.2 205.72L211.943 209.203C211.97 209.235 211.997 209.267 212.024 209.299L216.2 205.72ZM221.96 210.472L219.326 215.3C219.356 215.317 219.386 215.333 219.416 215.348L221.96 210.472ZM236.504 210.904L234.765 205.686C234.745 205.693 234.725 205.7 234.705 205.707L236.504 210.904ZM243.56 207.736L246.358 212.471C246.378 212.459 246.399 212.447 246.419 212.434L243.56 207.736ZM249.32 203.416L245.666 199.305C245.627 199.34 245.588 199.375 245.55 199.411L249.32 203.416ZM253.64 199.24L257.681 202.971C258.619 201.955 259.14 200.623 259.14 199.24H253.64ZM302.456 235.5H253.64V246.5H302.456V235.5ZM259.14 241V217.672H248.14V241H259.14ZM249.112 214.549L231.832 239.605L240.887 245.851L258.167 220.795L249.112 214.549ZM235.026 237.392C234.607 237.497 233.988 237.604 233.126 237.683L234.122 248.637C235.371 248.524 236.577 248.343 237.694 248.064L235.026 237.392ZM232.64 237.749C232.077 237.851 230.935 237.948 229.016 237.948V248.948C231.128 248.948 233.058 248.853 234.608 248.571L232.64 237.749ZM229.016 237.948C221.278 237.948 214.009 236.869 207.18 234.741L203.907 245.243C211.863 247.723 220.242 248.948 229.016 248.948V237.948ZM207.242 234.761C200.438 232.552 194.567 229.403 189.566 225.351L182.641 233.897C188.776 238.869 195.866 242.632 203.845 245.223L207.242 234.761ZM189.61 225.387C184.655 221.286 180.663 216.236 177.631 210.172L167.792 215.092C171.481 222.468 176.416 228.746 182.597 233.861L189.61 225.387ZM177.659 210.229C174.815 204.375 173.316 197.492 173.316 189.448H162.316C162.316 198.876 164.08 207.449 167.764 215.035L177.659 210.229ZM173.316 189.448C173.316 183.849 174.146 178.932 175.718 174.632L165.386 170.856C163.309 176.54 162.316 182.759 162.316 189.448H173.316ZM175.718 174.632C177.346 170.175 179.553 166.244 182.324 162.801L173.755 155.903C170.191 160.332 167.405 165.329 165.386 170.856L175.718 174.632ZM182.273 162.863C185.209 159.323 188.571 156.262 192.37 153.672L186.173 144.584C181.524 147.753 177.398 151.509 173.806 155.841L182.273 162.863ZM192.37 153.672C196.236 151.037 200.363 148.885 204.761 147.213L200.854 136.931C195.652 138.907 190.756 141.459 186.173 144.584L192.37 153.672ZM204.816 147.192C209.367 145.407 213.995 144.118 218.705 143.318L216.863 132.474C211.396 133.402 206.04 134.897 200.8 136.952L204.816 147.192ZM218.785 143.304C223.664 142.401 228.368 141.956 232.904 141.956V130.956C227.647 130.956 222.272 131.471 216.782 132.488L218.785 143.304ZM232.904 141.956C237.108 141.956 240.786 142.096 243.954 142.368L244.893 131.408C241.341 131.104 237.339 130.956 232.904 130.956V141.956ZM243.967 142.369C247.294 142.646 250.128 143.01 252.494 143.448L254.497 132.632C251.679 132.11 248.466 131.706 244.881 131.407L243.967 142.369ZM258.994 137.903C258.893 133.876 258.59 130.139 258.07 126.704L247.194 128.352C247.633 131.253 247.906 134.524 247.997 138.177L258.994 137.903ZM258.073 126.728C257.523 122.986 256.504 119.543 254.919 116.495L245.16 121.569C246.071 123.321 246.781 125.542 247.19 128.328L258.073 126.728ZM254.919 116.495C253.262 113.308 250.946 110.681 247.953 108.776L242.047 118.056C243.278 118.839 244.321 119.956 245.16 121.569L254.919 116.495ZM247.953 108.776C244.727 106.723 240.933 105.9 236.936 105.9V116.9C239.466 116.9 241.048 117.421 242.047 118.056L247.953 108.776ZM236.936 105.9C228.341 105.9 220.056 106.912 212.098 108.952L214.83 119.608C221.847 117.808 229.211 116.9 236.936 116.9V105.9ZM212.162 108.936C204.513 110.799 197.546 112.872 191.274 115.162L195.046 125.494C200.87 123.368 207.438 121.409 214.765 119.624L212.162 108.936ZM197.954 117.633L182.978 90.9928L173.389 96.3832L188.365 123.023L197.954 117.633ZM180.435 98.706C187.698 95.447 194.785 92.856 201.699 90.9203L198.733 80.3277C191.246 82.424 183.645 85.209 175.932 88.67L180.435 98.706ZM201.756 90.904C206.139 89.6254 211.375 88.4169 217.486 87.2886L215.489 76.4714C209.121 77.6471 203.508 78.9346 198.676 80.344L201.756 90.904ZM217.472 87.2913C223.411 86.2115 230.319 85.652 238.232 85.652V74.652C229.825 74.652 222.237 75.2445 215.504 76.4687L217.472 87.2913ZM238.232 85.652C250.324 85.652 259.753 87.1491 266.76 89.8837L270.759 79.6363C262.022 76.2268 251.1 74.652 238.232 74.652V85.652ZM266.835 89.9124C274.051 92.6074 279.345 96.3522 283.027 100.994L291.645 94.1583C286.494 87.6638 279.404 82.8646 270.684 79.6076L266.835 89.9124ZM283.092 101.075C286.973 105.782 289.697 111.566 291.169 118.578L301.934 116.318C300.142 107.778 296.722 100.314 291.579 94.077L283.092 101.075ZM291.186 118.655C292.81 125.875 293.644 133.959 293.644 142.936H304.644C304.644 133.289 303.749 124.381 301.918 116.241L291.186 118.655ZM293.644 142.936V211.48H304.644V142.936H293.644ZM293.678 212.093L296.99 241.613L307.921 240.387L304.609 210.867L293.678 212.093ZM254.322 161.382C251.899 161.08 249.252 160.831 246.386 160.633L245.629 171.607C248.331 171.793 250.772 172.024 252.958 172.298L254.322 161.382ZM246.594 160.651C243.727 160.344 240.939 160.188 238.232 160.188V171.188C240.517 171.188 242.913 171.32 245.422 171.589L246.594 160.651ZM238.232 160.188C234.259 160.188 230.343 160.741 226.497 161.84L229.519 172.416C232.393 171.595 235.293 171.188 238.232 171.188V160.188ZM226.456 161.851C222.606 162.984 219.089 164.703 215.95 167.028L222.498 175.868C224.542 174.353 226.881 173.192 229.56 172.405L226.456 161.851ZM215.95 167.028C212.686 169.446 210.059 172.512 208.065 176.147L217.71 181.437C218.981 179.12 220.577 177.29 222.498 175.868L215.95 167.028ZM208.065 176.147C205.912 180.074 204.94 184.521 204.94 189.304H215.94C215.94 186.023 216.599 183.462 217.71 181.437L208.065 176.147ZM204.94 189.304C204.94 193.17 205.567 196.862 206.881 200.327L217.166 196.425C216.368 194.322 215.94 191.966 215.94 189.304H204.94ZM206.881 200.327C208.129 203.615 209.806 206.591 211.943 209.203L220.457 202.237C219.137 200.625 218.031 198.705 217.166 196.425L206.881 200.327ZM212.024 209.299C214.141 211.769 216.571 213.798 219.326 215.3L224.593 205.644C223.125 204.842 221.715 203.703 220.376 202.141L212.024 209.299ZM219.416 215.348C222.307 216.857 225.382 217.7 228.584 217.7V206.7C227.37 206.7 226.028 206.391 224.504 205.596L219.416 215.348ZM228.584 217.7C231.947 217.7 235.198 217.176 238.303 216.101L234.705 205.707C232.818 206.36 230.789 206.7 228.584 206.7V217.7ZM238.243 216.122C241.163 215.148 243.876 213.938 246.358 212.471L240.762 203.001C239.02 204.03 237.029 204.932 234.765 205.686L238.243 216.122ZM246.419 212.434C248.905 210.921 251.14 209.255 253.089 207.421L245.55 199.411C244.235 200.649 242.63 201.863 240.7 203.038L246.419 212.434ZM252.974 207.527C254.792 205.91 256.372 204.389 257.681 202.971L249.598 195.509C248.604 196.587 247.303 197.85 245.666 199.305L252.974 207.527ZM259.14 199.24V166.84H248.14V199.24H259.14ZM332.232 42.424H337.732C337.732 42.2503 337.724 42.0766 337.708 41.9037L332.232 42.424ZM329.208 10.6L328.72 5.12169C327.262 5.25162 325.915 5.9578 324.979 7.08377C324.043 8.20974 323.594 9.66254 323.733 11.1203L329.208 10.6ZM379.32 6.13599H384.82C384.82 4.59245 384.172 3.11994 383.033 2.07804C381.894 1.03613 380.37 0.52073 378.832 0.657687L379.32 6.13599ZM379.752 194.344L374.271 194.801L374.271 194.801L379.752 194.344ZM381.48 203.272L376.283 205.071C376.311 205.153 376.341 205.234 376.374 205.315L381.48 203.272ZM385.512 208.888L382.136 213.229L382.136 213.229L385.512 208.888ZM396.456 210.616L397.234 216.061C397.335 216.046 397.435 216.029 397.535 216.009L396.456 210.616ZM400.488 209.608L398.977 204.32C398.942 204.33 398.906 204.34 398.871 204.351L400.488 209.608ZM404.088 208.6L405.535 213.906C405.681 213.866 405.826 213.821 405.968 213.769L404.088 208.6ZM406.68 207.592L411.971 206.088C411.538 204.567 410.473 203.306 409.045 202.626C407.618 201.947 405.967 201.914 404.514 202.537L406.68 207.592ZM414.744 235.96L417.378 240.788C419.634 239.558 420.737 236.928 420.035 234.456L414.744 235.96ZM410.28 238.12L412.323 243.227C412.395 243.198 412.466 243.167 412.537 243.136L410.28 238.12ZM403.512 240.568L405.075 245.841C405.134 245.824 405.193 245.805 405.252 245.786L403.512 240.568ZM394.728 242.584L393.772 237.168C393.763 237.169 393.754 237.171 393.744 237.173L394.728 242.584ZM358.44 238.84L356.122 243.828C356.141 243.837 356.161 243.845 356.18 243.854L358.44 238.84ZM342.312 225.88L337.785 229.003C337.805 229.032 337.826 229.062 337.847 229.092L342.312 225.88ZM334.392 206.296L328.989 207.322L328.991 207.335L334.392 206.296ZM337.708 41.9037L334.684 10.0797L323.733 11.1203L326.757 42.9443L337.708 41.9037ZM329.696 16.0783L379.808 11.6143L378.832 0.657687L328.72 5.12169L329.696 16.0783ZM373.82 6.13599V182.968H384.82V6.13599H373.82ZM373.82 182.968C373.82 187.221 373.968 191.168 374.271 194.801L385.233 193.887C384.96 190.608 384.82 186.971 384.82 182.968H373.82ZM374.271 194.801C374.586 198.581 375.23 202.03 376.283 205.071L386.678 201.473C386.002 199.522 385.494 197.019 385.233 193.887L374.271 194.801ZM376.374 205.315C377.63 208.456 379.508 211.186 382.136 213.229L388.889 204.547C388.06 203.902 387.25 202.888 386.587 201.229L376.374 205.315ZM382.136 213.229C385.095 215.532 388.708 216.404 392.424 216.404V205.404C390.381 205.404 389.385 204.932 388.889 204.547L382.136 213.229ZM392.424 216.404C394.031 216.404 395.635 216.289 397.234 216.061L395.678 205.171C394.589 205.327 393.505 205.404 392.424 205.404V216.404ZM397.535 216.009C399.135 215.689 400.66 215.31 402.106 214.865L398.871 204.351C397.82 204.674 396.658 204.967 395.378 205.223L397.535 216.009ZM401.999 214.896C403.327 214.517 404.506 214.187 405.535 213.906L402.641 203.294C401.559 203.589 400.337 203.931 398.977 204.32L401.999 214.896ZM405.968 213.769C407.075 213.366 408.044 212.991 408.847 212.647L404.514 202.537C403.972 202.769 403.213 203.066 402.209 203.431L405.968 213.769ZM401.39 209.096L409.454 237.464L420.035 234.456L411.971 206.088L401.39 209.096ZM412.111 231.132C411.236 231.609 409.895 232.262 408.023 233.104L412.537 243.136C414.506 242.25 416.141 241.463 417.378 240.788L412.111 231.132ZM408.238 233.013C406.443 233.731 404.293 234.51 401.773 235.35L405.252 245.786C407.915 244.898 410.277 244.045 412.323 243.227L408.238 233.013ZM401.95 235.295C399.596 235.992 396.875 236.62 393.772 237.168L395.684 248C399.109 247.396 402.245 246.68 405.075 245.841L401.95 235.295ZM393.744 237.173C390.932 237.684 387.904 237.948 384.648 237.948V248.948C388.497 248.948 392.188 248.636 395.712 247.995L393.744 237.173ZM384.648 237.948C374.464 237.948 366.571 236.472 360.7 233.826L356.18 243.854C363.942 247.352 373.52 248.948 384.648 248.948V237.948ZM360.758 233.852C354.698 231.036 350.101 227.289 346.777 222.668L337.847 229.092C342.396 235.415 348.551 240.308 356.122 243.828L360.758 233.852ZM346.84 222.757C343.484 217.891 341.108 212.093 339.793 205.257L328.991 207.335C330.557 215.475 333.461 222.733 337.785 229.003L346.84 222.757ZM339.796 205.27C338.428 198.065 337.732 190.252 337.732 181.816H326.732C326.732 190.852 327.477 199.359 328.989 207.322L339.796 205.27ZM337.732 181.816V42.424H326.732V181.816H337.732ZM433.064 241H427.564C427.564 244.038 430.026 246.5 433.064 246.5V241ZM433.064 39.832H438.564C438.564 39.634 438.553 39.4362 438.532 39.2394L433.064 39.832ZM429.896 10.6L429.378 5.1244C427.913 5.26288 426.564 5.98284 425.634 7.12325C424.704 8.26367 424.269 9.72938 424.428 11.1926L429.896 10.6ZM477.128 6.13599H482.628C482.628 4.58729 481.975 3.11036 480.829 2.06805C479.684 1.02575 478.152 0.514673 476.61 0.660395L477.128 6.13599ZM477.128 130.264H471.628C471.628 132.599 473.103 134.68 475.306 135.454C477.51 136.227 479.962 135.525 481.421 133.701L477.128 130.264ZM515.288 82.6V77.1C513.618 77.1 512.038 77.8588 510.994 79.1626L515.288 82.6ZM564.392 82.6L568.47 86.2906C569.929 84.6781 570.301 82.3572 569.419 80.3693C568.537 78.3815 566.567 77.1 564.392 77.1V82.6ZM512.264 140.2L514.117 145.378C514.97 145.073 515.734 144.562 516.342 143.891L512.264 140.2ZM482.888 150.712L481.035 145.534C478.827 146.324 477.362 148.427 477.388 150.772C477.414 153.117 478.924 155.188 481.148 155.93L482.888 150.712ZM510.104 159.784L514.3 156.228C513.648 155.46 512.799 154.885 511.843 154.566L510.104 159.784ZM578.936 241V246.5C581.078 246.5 583.026 245.256 583.926 243.312C584.827 241.368 584.517 239.078 583.132 237.444L578.936 241ZM528.824 241L524.495 244.393C525.538 245.723 527.134 246.5 528.824 246.5V241ZM477.128 175.048L481.456 171.655C480.009 169.809 477.55 169.084 475.333 169.849C473.116 170.615 471.628 172.702 471.628 175.048H477.128ZM477.128 241V246.5C480.165 246.5 482.628 244.038 482.628 241H477.128ZM438.564 241V39.832H427.564V241H438.564ZM438.532 39.2394L435.364 10.0074L424.428 11.1926L427.596 40.4246L438.532 39.2394ZM430.413 16.0756L477.645 11.6116L476.61 0.660395L429.378 5.1244L430.413 16.0756ZM471.628 6.13599V130.264H482.628V6.13599H471.628ZM481.421 133.701L519.581 86.0374L510.994 79.1626L472.834 126.827L481.421 133.701ZM515.288 88.1H564.392V77.1H515.288V88.1ZM560.314 78.9094L508.186 136.509L516.342 143.891L568.47 86.2906L560.314 78.9094ZM510.411 135.022L481.035 145.534L484.741 155.89L514.117 145.378L510.411 135.022ZM481.148 155.93L508.364 165.002L511.843 154.566L484.627 145.494L481.148 155.93ZM505.908 163.34L574.74 244.556L583.132 237.444L514.3 156.228L505.908 163.34ZM578.936 235.5H528.824V246.5H578.936V235.5ZM533.152 237.607L481.456 171.655L472.799 178.441L524.495 244.393L533.152 237.607ZM471.628 175.048V241H482.628V175.048H471.628ZM477.128 235.5H433.064V246.5H477.128V235.5ZM796.207 71.368L793.423 76.1113C795.796 77.5041 798.833 76.929 800.533 74.765L796.207 71.368ZM784.111 64.744L781.496 69.5824C781.547 69.6102 781.599 69.6372 781.651 69.6633L784.111 64.744ZM774.175 59.992L771.971 65.0309C772.015 65.0503 772.06 65.0692 772.105 65.0876L774.175 59.992ZM765.391 57.112L764.057 62.4478C764.13 62.466 764.203 62.4827 764.277 62.4979L765.391 57.112ZM746.959 57.4L748.185 62.7617C748.233 62.7507 748.281 62.739 748.329 62.7267L746.959 57.4ZM738.031 61.288L741.082 65.8643C741.12 65.8386 741.158 65.8125 741.196 65.7859L738.031 61.288ZM731.695 68.344L726.873 65.6994C726.862 65.7181 726.852 65.7369 726.842 65.7558L731.695 68.344ZM739.327 97.432L735.874 101.713C735.896 101.731 735.919 101.749 735.941 101.766L739.327 97.432ZM749.839 104.056L747.332 108.951C747.364 108.968 747.396 108.984 747.428 108.999L749.839 104.056ZM762.079 109.816L764.377 104.819C764.37 104.816 764.362 104.812 764.355 104.809L762.079 109.816ZM776.623 116.728L774.202 121.667C774.241 121.685 774.279 121.704 774.318 121.722L776.623 116.728ZM791.023 124.504L788.108 129.168C788.132 129.183 788.155 129.197 788.179 129.212L791.023 124.504ZM803.983 133.72L807.504 129.495L807.504 129.495L803.983 133.72ZM814.495 145.096L809.999 148.264C810.015 148.286 810.031 148.309 810.047 148.331L814.495 145.096ZM817.375 205.72L812.559 203.063L812.559 203.063L817.375 205.72ZM798.943 226.6L795.715 222.147C795.706 222.154 795.697 222.16 795.688 222.167L798.943 226.6ZM772.591 239.272L774.082 244.566C774.093 244.563 774.104 244.56 774.115 244.557L772.591 239.272ZM708.367 238.408L706.598 243.616C706.618 243.622 706.637 243.629 706.657 243.635L708.367 238.408ZM677.695 223.576L672.995 220.719C671.432 223.29 672.226 226.641 674.776 228.238L677.695 223.576ZM697.567 190.888L700.618 186.312C699.371 185.48 697.839 185.194 696.376 185.519C694.913 185.843 693.646 186.75 692.867 188.031L697.567 190.888ZM706.783 196.648L703.972 201.375C704.004 201.394 704.036 201.413 704.068 201.431L706.783 196.648ZM718.015 202.264L715.804 207.3C715.819 207.307 715.834 207.313 715.848 207.319L718.015 202.264ZM730.111 206.728L728.485 211.982C728.523 211.994 728.561 212.005 728.6 212.016L730.111 206.728ZM754.159 206.872L755.522 212.2L754.159 206.872ZM765.103 201.832L768.338 206.28C768.346 206.274 768.353 206.269 768.361 206.263L765.103 201.832ZM772.879 192.76L768.036 190.152C768.028 190.168 768.02 190.183 768.012 190.198L772.879 192.76ZM772.303 165.544L767.556 168.322C767.583 168.368 767.611 168.414 767.639 168.459L772.303 165.544ZM763.087 155.176L759.598 159.428C759.638 159.46 759.678 159.492 759.718 159.523L763.087 155.176ZM750.271 146.968L747.734 151.848C747.759 151.861 747.785 151.874 747.811 151.887L750.271 146.968ZM735.727 139.768L733.378 144.741L733.385 144.745L735.727 139.768ZM715.279 129.688L712.68 134.535C712.708 134.55 712.736 134.565 712.764 134.579L715.279 129.688ZM697.279 117.736L693.75 121.955C693.763 121.965 693.775 121.976 693.788 121.986L697.279 117.736ZM684.463 102.76L679.698 105.506C679.704 105.518 679.711 105.53 679.718 105.541L684.463 102.76ZM685.903 57.256L681.124 54.5338C681.12 54.5404 681.116 54.5471 681.113 54.5537L685.903 57.256ZM702.895 38.248L706.126 42.6987C706.14 42.6891 706.153 42.6794 706.166 42.6697L702.895 38.248ZM726.655 26.584L728.204 31.8614C728.216 31.8578 728.228 31.8542 728.241 31.8505L726.655 26.584ZM786.271 27.88L784.488 33.0831L784.488 33.0831L786.271 27.88ZM817.807 43.864L822.133 47.261C823.079 46.0554 823.48 44.5094 823.238 42.9957C822.996 41.482 822.133 40.138 820.858 39.2877L817.807 43.864ZM798.991 66.6247C794.494 63.9853 790.352 61.7155 786.571 59.8246L781.651 69.6633C785.166 71.4205 789.088 73.5667 793.423 76.1113L798.991 66.6247ZM786.726 59.9056C783.034 57.9097 779.538 56.2343 776.245 54.8964L772.105 65.0876C774.956 66.2457 778.084 67.7383 781.496 69.5824L786.726 59.9056ZM776.38 54.9531C773.018 53.4823 769.723 52.3919 766.505 51.7261L764.277 62.4979C766.627 62.9841 769.188 63.8136 771.971 65.0309L776.38 54.9531ZM766.725 51.7762C763.614 50.9985 760.478 50.604 757.327 50.604V61.604C759.552 61.604 761.792 61.8815 764.057 62.4478L766.725 51.7762ZM757.327 50.604C753.324 50.604 749.407 51.0915 745.589 52.0733L748.329 62.7267C751.231 61.9805 754.226 61.604 757.327 61.604V50.604ZM745.733 52.0383C741.738 52.9515 738.091 54.5202 734.866 56.7901L741.196 65.7859C743.155 64.4078 745.46 63.3845 748.185 62.7617L745.733 52.0383ZM734.98 56.7117C731.586 58.9745 728.892 62.0172 726.873 65.6994L736.517 70.9886C737.762 68.7187 739.292 67.0575 741.082 65.8643L734.98 56.7117ZM726.842 65.7558C724.775 69.6323 723.891 74.1309 723.891 79H734.891C734.891 75.4211 735.543 72.8157 736.548 70.9322L726.842 65.7558ZM723.891 79C723.891 83.8177 725.018 88.2945 727.438 92.2421L736.816 86.4939C735.588 84.4894 734.891 82.0543 734.891 79H723.891ZM727.438 92.2421C729.62 95.8032 732.455 98.9559 735.874 101.713L742.78 93.1507C740.247 91.108 738.282 88.8848 736.816 86.4939L727.438 92.2421ZM735.941 101.766C739.321 104.407 743.126 106.797 747.332 108.951L752.346 99.1608C748.68 97.2828 745.477 95.2571 742.713 93.0979L735.941 101.766ZM747.428 108.999C751.411 110.942 755.536 112.884 759.803 114.823L764.355 104.809C760.174 102.908 756.139 101.01 752.25 99.1128L747.428 108.999ZM759.781 114.813C764.538 117.001 769.345 119.286 774.202 121.667L779.044 111.789C774.109 109.37 769.22 107.047 764.377 104.819L759.781 114.813ZM774.318 121.722C779.103 123.93 783.699 126.412 788.108 129.168L793.938 119.84C789.131 116.836 784.127 114.134 778.928 111.734L774.318 121.722ZM788.179 129.212C792.556 131.856 796.649 134.767 800.462 137.945L807.504 129.495C803.253 125.953 798.707 122.72 793.867 119.796L788.179 129.212ZM800.462 137.945C804.13 141.002 807.305 144.44 809.999 148.264L818.991 141.928C815.733 137.304 811.9 133.158 807.504 129.495L800.462 137.945ZM810.047 148.331C812.772 152.078 814.919 156.273 816.477 160.947L826.913 157.469C825.015 151.775 822.362 146.562 818.943 141.861L810.047 148.331ZM816.477 160.947C817.991 165.489 818.787 170.651 818.787 176.488H829.787C829.787 169.653 828.855 163.295 826.913 157.469L816.477 160.947ZM818.787 176.488C818.787 186.851 816.648 195.651 812.559 203.063L822.191 208.377C827.318 199.085 829.787 188.397 829.787 176.488H818.787ZM812.559 203.063C808.34 210.711 802.736 217.057 795.715 222.147L802.171 231.053C810.51 225.007 817.194 217.433 822.191 208.377L812.559 203.063ZM795.688 222.167C788.678 227.313 780.493 231.268 771.067 233.987L774.115 244.557C784.657 241.516 794.04 237.023 802.198 231.033L795.688 222.167ZM771.1 233.978C761.711 236.621 751.989 237.948 741.919 237.948V248.948C752.969 248.948 763.695 247.491 774.082 244.566L771.1 233.978ZM741.919 237.948C730.335 237.948 719.735 236.34 710.077 233.181L706.657 243.635C717.543 247.196 729.311 248.948 741.919 248.948V237.948ZM710.136 233.2C700.41 229.897 690.57 225.149 680.614 218.914L674.776 228.238C685.364 234.867 695.972 240.007 706.598 243.616L710.136 233.2ZM682.395 226.433L702.267 193.745L692.867 188.031L672.995 220.719L682.395 226.433ZM694.516 195.464C697.207 197.258 700.363 199.23 703.972 201.375L709.594 191.921C706.099 189.842 703.111 187.974 700.618 186.312L694.516 195.464ZM704.068 201.431C707.792 203.545 711.705 205.5 715.804 207.3L720.226 197.228C716.453 195.572 712.878 193.783 709.498 191.865L704.068 201.431ZM715.848 207.319C720.05 209.12 724.262 210.675 728.485 211.982L731.737 201.474C727.896 200.285 724.044 198.864 720.182 197.209L715.848 207.319ZM728.6 212.016C733.052 213.288 737.402 213.956 741.631 213.956V202.956C738.564 202.956 735.234 202.472 731.622 201.44L728.6 212.016ZM741.631 213.956C746.319 213.956 750.953 213.369 755.522 212.2L752.796 201.544C749.109 202.487 745.391 202.956 741.631 202.956V213.956ZM755.522 212.2C760.265 210.987 764.56 209.028 768.338 206.28L761.868 197.384C759.31 199.244 756.309 200.645 752.796 201.544L755.522 212.2ZM768.361 206.263C772.308 203.361 775.445 199.693 777.746 195.322L768.012 190.198C766.473 193.123 764.426 195.503 761.845 197.401L768.361 206.263ZM777.722 195.368C780.268 190.638 781.403 185.131 781.403 179.08H770.403C770.403 183.781 769.522 187.394 768.036 190.152L777.722 195.368ZM781.403 179.08C781.403 173.018 779.989 167.464 776.967 162.629L767.639 168.459C769.417 171.304 770.403 174.774 770.403 179.08H781.403ZM777.05 162.766C774.368 158.185 770.815 154.207 766.456 150.829L759.718 159.523C763.039 162.097 765.63 165.031 767.556 168.322L777.05 162.766ZM766.576 150.924C762.483 147.566 757.859 144.613 752.731 142.049L747.811 151.887C752.283 154.123 756.203 156.642 759.598 159.428L766.576 150.924ZM752.808 142.088C747.944 139.559 743.031 137.126 738.069 134.791L733.385 144.745C738.215 147.018 742.998 149.385 747.734 151.848L752.808 142.088ZM738.076 134.795C731.219 131.557 724.459 128.224 717.794 124.797L712.764 134.579C719.539 138.064 726.411 141.451 733.378 144.741L738.076 134.795ZM717.878 124.841C711.545 121.445 705.848 117.657 700.77 113.486L693.788 121.986C699.462 126.647 705.765 130.827 712.68 134.535L717.878 124.841ZM700.808 113.517C695.98 109.48 692.131 104.966 689.208 99.9785L679.718 105.541C683.323 111.69 688.018 117.16 693.75 121.955L700.808 113.517ZM689.228 100.014C686.512 95.3003 685.067 89.6984 685.067 83.032H674.067C674.067 91.3416 675.886 98.8917 679.698 105.506L689.228 100.014ZM685.067 83.032C685.067 74.1596 686.992 66.5206 690.693 59.9583L681.113 54.5537C676.366 62.9674 674.067 72.5123 674.067 83.032H685.067ZM690.682 59.9782C694.618 53.0684 699.756 47.3234 706.126 42.6987L699.664 33.7973C692.018 39.3486 685.828 46.2756 681.124 54.5338L690.682 59.9782ZM706.166 42.6697C712.626 37.891 719.957 34.2818 728.204 31.8614L725.106 21.3066C715.689 24.0702 707.18 28.237 699.624 33.8263L706.166 42.6697ZM728.241 31.8505C736.66 29.3155 745.198 28.052 753.871 28.052V17.052C744.112 17.052 734.506 18.4765 725.069 21.3175L728.241 31.8505ZM753.871 28.052C764.512 28.052 774.708 29.7326 784.488 33.0831L788.054 22.6769C777.098 18.9234 765.694 17.052 753.871 17.052V28.052ZM784.488 33.0831C794.341 36.4584 804.43 41.556 814.756 48.4403L820.858 39.2877C809.872 31.964 798.937 26.4056 788.054 22.6769L784.488 33.0831ZM813.481 40.467L791.881 67.971L800.533 74.765L822.133 47.261L813.481 40.467ZM899.255 197.512L893.775 197.982L893.776 197.995L899.255 197.512ZM900.695 205.432L895.477 207.171C895.501 207.245 895.528 207.318 895.555 207.39L900.695 205.432ZM903.575 209.752L900.275 214.152L900.275 214.152L903.575 209.752ZM913.655 210.472L912.522 205.09L912.522 205.09L913.655 210.472ZM918.551 209.176L920.29 214.394L920.29 214.394L918.551 209.176ZM923.303 207.16L928.055 204.391C926.566 201.836 923.323 200.916 920.715 202.307L923.303 207.16ZM936.983 230.632L940.872 234.521C942.638 232.755 942.992 230.02 941.735 227.863L936.983 230.632ZM931.655 234.664L934.57 239.328C934.586 239.318 934.603 239.307 934.62 239.296L931.655 234.664ZM923.447 238.84L925.463 243.957C925.507 243.94 925.551 243.922 925.595 243.903L923.447 238.84ZM912.791 242.008L911.612 236.636C911.602 236.638 911.593 236.64 911.583 236.642L912.791 242.008ZM875.927 238.408L878.476 233.534L878.476 233.534L875.927 238.408ZM861.527 225.16L866.236 222.318L866.236 222.318L861.527 225.16ZM854.903 205.72L849.457 206.488L849.458 206.498L854.903 205.72ZM853.319 114.856H858.819C858.819 111.818 856.356 109.356 853.319 109.356V114.856ZM831.719 114.856H826.219C826.219 117.894 828.681 120.356 831.719 120.356V114.856ZM831.719 82.6V77.1C828.681 77.1 826.219 79.5624 826.219 82.6H831.719ZM853.319 82.6V88.1C856.356 88.1 858.819 85.6376 858.819 82.6H853.319ZM853.319 56.824L850.525 52.0865C848.848 53.0754 847.819 54.8772 847.819 56.824H853.319ZM898.247 30.328H903.747C903.747 28.3539 902.689 26.5313 900.975 25.5522C899.261 24.5731 897.153 24.5877 895.453 25.5905L898.247 30.328ZM898.247 82.6H892.747C892.747 85.6376 895.209 88.1 898.247 88.1V82.6ZM940.007 82.6L945.467 83.2582C945.656 81.6961 945.166 80.1282 944.122 78.951C943.078 77.7738 941.58 77.1 940.007 77.1V82.6ZM936.119 114.856V120.356C938.902 120.356 941.246 118.277 941.579 115.514L936.119 114.856ZM898.823 114.856V109.356C895.785 109.356 893.323 111.818 893.323 114.856H898.823ZM893.323 185.128C893.323 190.118 893.469 194.413 893.775 197.982L904.735 197.042C904.465 193.891 904.323 189.93 904.323 185.128H893.323ZM893.776 197.995C894.084 201.483 894.617 204.592 895.477 207.171L905.913 203.693C905.428 202.24 905.002 200.069 904.733 197.029L893.776 197.995ZM895.555 207.39C896.521 209.926 897.974 212.427 900.275 214.152L906.875 205.352C906.887 205.361 906.769 205.276 906.567 204.973C906.363 204.667 906.106 204.188 905.834 203.474L895.555 207.39ZM900.275 214.152C902.558 215.864 905.221 216.548 907.895 216.548V205.548C907.112 205.548 906.896 205.368 906.875 205.352L900.275 214.152ZM907.895 216.548C910.261 216.548 912.562 216.323 914.788 215.854L912.522 205.09C911.099 205.389 909.561 205.548 907.895 205.548V216.548ZM914.788 215.854C916.773 215.436 918.613 214.953 920.29 214.394L916.812 203.958C915.609 204.359 914.185 204.74 912.522 205.09L914.788 215.854ZM920.29 214.394C922.278 213.731 924.15 212.942 925.891 212.013L920.715 202.307C919.576 202.914 918.28 203.469 916.812 203.958L920.29 214.394ZM918.551 209.929L932.231 233.401L941.735 227.863L928.055 204.391L918.551 209.929ZM933.094 226.743C932.355 227.481 930.964 228.576 928.69 230.032L934.62 239.296C937.145 237.68 939.306 236.087 940.872 234.521L933.094 226.743ZM928.74 230C926.735 231.253 924.267 232.517 921.299 233.777L925.595 243.903C928.962 242.475 931.967 240.955 934.57 239.328L928.74 230ZM921.431 233.723C918.578 234.846 915.312 235.823 911.612 236.636L913.97 247.38C918.141 246.465 921.979 245.33 925.463 243.957L921.431 233.723ZM911.583 236.642C908.159 237.413 904.58 237.804 900.839 237.804V248.804C905.353 248.804 909.743 248.331 913.998 247.374L911.583 236.642ZM900.839 237.804C890.971 237.804 883.645 236.238 878.476 233.534L873.378 243.282C880.688 247.106 889.971 248.804 900.839 248.804V237.804ZM878.476 233.534C873.052 230.697 869.033 226.953 866.236 222.318L856.818 228.002C860.741 234.503 866.322 239.591 873.378 243.282L878.476 233.534ZM866.236 222.318C863.309 217.469 861.314 211.711 860.347 204.942L849.458 206.498C850.603 214.513 853.024 221.715 856.818 228.002L866.236 222.318ZM860.349 204.952C859.332 197.743 858.819 190.081 858.819 181.96H847.819C847.819 190.543 848.361 198.721 849.457 206.488L860.349 204.952ZM858.819 181.96V114.856H847.819V181.96H858.819ZM853.319 109.356H831.719V120.356H853.319V109.356ZM837.219 114.856V82.6H826.219V114.856H837.219ZM831.719 88.1H853.319V77.1H831.719V88.1ZM858.819 82.6V56.824H847.819V82.6H858.819ZM856.113 61.5615L901.041 35.0655L895.453 25.5905L850.525 52.0865L856.113 61.5615ZM892.747 30.328V82.6H903.747V30.328H892.747ZM898.247 88.1H940.007V77.1H898.247V88.1ZM934.546 81.9418L930.658 114.198L941.579 115.514L945.467 83.2582L934.546 81.9418ZM936.119 109.356H898.823V120.356H936.119V109.356ZM893.323 114.856V185.128H904.323V114.856H893.323ZM1002.47 237.256L1000.24 242.282C1000.25 242.288 1000.27 242.295 1000.28 242.301L1002.47 237.256ZM977.847 219.976L973.804 223.704C973.821 223.723 973.837 223.741 973.855 223.759L977.847 219.976ZM961.863 193.912L956.713 195.843C956.719 195.858 956.724 195.872 956.73 195.886L961.863 193.912ZM961.719 129.112L966.879 131.016C966.881 131.01 966.883 131.005 966.885 131L961.719 129.112ZM977.271 103.336L973.252 99.5814L973.25 99.5832L977.271 103.336ZM1001.75 86.344L1003.9 91.4072C1003.91 91.4037 1003.92 91.4002 1003.92 91.3967L1001.75 86.344ZM1065.54 86.344L1063.35 91.3887C1063.37 91.3976 1063.39 91.4063 1063.41 91.4149L1065.54 86.344ZM1090.17 103.336L1086.15 107.091C1086.17 107.109 1086.18 107.127 1086.2 107.145L1090.17 103.336ZM1106.15 129.112L1101 131.043C1101.01 131.063 1101.02 131.083 1101.02 131.103L1106.15 129.112ZM1106.44 193.912L1101.27 192.024L1101.27 192.024L1106.44 193.912ZM1090.74 219.976L1086.7 216.248L1086.7 216.25L1090.74 219.976ZM1066.26 237.256L1068.44 242.309C1068.45 242.303 1068.46 242.296 1068.48 242.29L1066.26 237.256ZM1063.24 145.672L1068.65 144.688L1068.65 144.688L1063.24 145.672ZM1057.62 128.68L1052.69 131.102C1052.7 131.14 1052.72 131.177 1052.74 131.214L1057.62 128.68ZM1047.83 116.44L1044.45 120.776C1044.46 120.789 1044.48 120.802 1044.5 120.815L1047.83 116.44ZM1019.75 115.864L1022.83 120.423C1022.85 120.405 1022.88 120.388 1022.91 120.37L1019.75 115.864ZM1010.25 126.376L1005.46 123.67C1005.44 123.696 1005.43 123.723 1005.41 123.75L1010.25 126.376ZM1004.92 141.496L1010.31 142.61C1010.31 142.604 1010.31 142.598 1010.31 142.592L1004.92 141.496ZM1004.92 178.216L999.508 179.2L999.508 179.2L1004.92 178.216ZM1010.39 195.208L1005.47 197.668C1005.49 197.706 1005.51 197.744 1005.53 197.781L1010.39 195.208ZM1048.12 207.88L1051.2 212.439C1051.22 212.421 1051.25 212.404 1051.27 212.386L1048.12 207.88ZM1057.62 197.224L1052.84 194.518L1052.84 194.518L1057.62 197.224ZM1063.1 182.248L1057.73 181.045C1057.72 181.075 1057.72 181.104 1057.71 181.134L1063.1 182.248ZM1034.01 237.948C1023.16 237.948 1013.4 236.007 1004.66 232.211L1000.28 242.301C1010.55 246.761 1021.82 248.948 1034.01 248.948V237.948ZM1004.71 232.23C995.84 228.29 988.236 222.945 981.84 216.193L973.855 223.759C981.283 231.599 990.095 237.774 1000.24 242.282L1004.71 232.23ZM981.891 216.248C975.575 209.398 970.603 201.315 966.997 191.938L956.73 195.886C960.803 206.477 966.488 215.77 973.804 223.704L981.891 216.248ZM967.013 191.981C963.522 182.672 961.747 172.485 961.747 161.368H950.747C950.747 173.675 952.716 185.184 956.713 195.843L967.013 191.981ZM961.747 161.368C961.747 150.335 963.478 140.235 966.879 131.016L956.559 127.208C952.665 137.765 950.747 149.169 950.747 161.368H961.747ZM966.885 131C970.301 121.652 975.114 113.708 981.292 107.089L973.25 99.5832C965.989 107.364 960.434 116.604 956.553 127.224L966.885 131ZM981.29 107.091C987.563 100.376 995.079 95.1492 1003.9 91.4072L999.603 81.2808C989.416 85.6028 980.611 91.7038 973.252 99.5814L981.29 107.091ZM1003.92 91.3967C1012.75 87.6021 1022.75 85.652 1034.01 85.652V74.652C1021.46 74.652 1009.95 76.8299 999.579 81.2913L1003.92 91.3967ZM1034.01 85.652C1044.86 85.652 1054.61 87.593 1063.35 91.3887L1067.73 81.2993C1057.47 76.839 1046.2 74.652 1034.01 74.652V85.652ZM1063.41 91.4149C1072.33 95.1595 1079.88 100.386 1086.15 107.091L1094.19 99.5814C1086.82 91.6939 1077.96 85.5925 1067.67 81.2731L1063.41 91.4149ZM1086.2 107.145C1092.56 113.77 1097.5 121.71 1101 131.043L1111.3 127.181C1107.31 116.546 1101.6 107.302 1094.13 99.5271L1086.2 107.145ZM1101.02 131.103C1104.6 140.298 1106.41 150.368 1106.41 161.368H1117.41C1117.41 149.136 1115.39 137.702 1111.28 127.121L1101.02 131.103ZM1106.41 161.368C1106.41 172.502 1104.68 182.704 1101.27 192.024L1111.61 195.8C1115.5 185.152 1117.41 173.658 1117.41 161.368H1106.41ZM1101.27 192.024C1097.86 201.366 1093 209.419 1086.7 216.248L1094.79 223.704C1102.12 215.749 1107.72 206.426 1111.61 195.8L1101.27 192.024ZM1086.7 216.25C1080.52 222.957 1072.99 228.285 1064.05 232.222L1068.48 242.29C1078.73 237.779 1087.53 231.587 1094.79 223.702L1086.7 216.25ZM1064.09 232.203C1055.27 235.998 1045.27 237.948 1034.01 237.948V248.948C1046.55 248.948 1058.06 246.77 1068.44 242.309L1064.09 232.203ZM1070.47 164.968C1070.47 158.115 1069.86 151.353 1068.65 144.688L1057.83 146.656C1058.92 152.663 1059.47 158.765 1059.47 164.968H1070.47ZM1068.65 144.688C1067.41 137.888 1065.38 131.69 1062.5 126.146L1052.74 131.214C1055.05 135.654 1056.76 140.784 1057.83 146.656L1068.65 144.688ZM1062.56 126.258C1059.73 120.495 1055.95 115.713 1051.16 112.065L1044.5 120.815C1047.77 123.311 1050.52 126.689 1052.69 131.102L1062.56 126.258ZM1051.22 112.104C1046.18 108.178 1040.15 106.332 1033.43 106.332V117.332C1038.04 117.332 1041.61 118.558 1044.45 120.776L1051.22 112.104ZM1033.43 106.332C1027.17 106.332 1021.48 107.943 1016.6 111.358L1022.91 120.37C1025.71 118.409 1029.13 117.332 1033.43 117.332V106.332ZM1016.67 111.305C1012.06 114.418 1008.33 118.584 1005.46 123.67L1015.04 129.082C1017.15 125.336 1019.76 122.494 1022.83 120.423L1016.67 111.305ZM1005.41 123.75C1002.72 128.711 1000.77 134.279 999.53 140.4L1010.31 142.592C1011.37 137.385 1012.98 132.873 1015.08 129.002L1005.41 123.75ZM999.533 140.382C998.302 146.333 997.691 152.467 997.691 158.776H1008.69C1008.69 153.181 1009.23 147.795 1010.31 142.61L999.533 140.382ZM997.691 158.776C997.691 165.721 998.295 172.53 999.508 179.2L1010.33 177.232C1009.24 171.23 1008.69 165.079 1008.69 158.776H997.691ZM999.508 179.2C1000.74 185.972 1002.71 192.144 1005.47 197.668L1015.31 192.748C1013.08 188.288 1011.4 183.132 1010.33 177.232L999.508 179.2ZM1005.53 197.781C1008.45 203.287 1012.19 207.897 1016.8 211.496L1023.57 202.824C1020.31 200.279 1017.52 196.921 1015.25 192.635L1005.53 197.781ZM1016.8 211.496C1021.81 215.409 1027.79 217.268 1034.44 217.268V206.268C1029.95 206.268 1026.43 205.055 1023.57 202.824L1016.8 211.496ZM1034.44 217.268C1040.66 217.268 1046.32 215.727 1051.2 212.439L1045.04 203.321C1042.23 205.217 1038.78 206.268 1034.44 206.268V217.268ZM1051.27 212.386C1055.84 209.19 1059.55 205.001 1062.41 199.93L1052.84 194.518C1050.71 198.279 1048.08 201.194 1044.97 203.374L1051.27 212.386ZM1062.41 199.93C1065.22 194.962 1067.23 189.422 1068.48 183.362L1057.71 181.134C1056.66 186.21 1055.02 190.654 1052.84 194.518L1062.41 199.93ZM1068.46 183.451C1069.8 177.471 1070.47 171.307 1070.47 164.968H1059.47C1059.47 170.533 1058.88 175.889 1057.73 181.045L1068.46 183.451ZM1233.19 123.784L1229.37 127.738C1231.51 129.804 1234.9 129.798 1237.03 127.725L1233.19 123.784ZM1224.84 117.16L1221.91 121.814C1221.93 121.83 1221.96 121.846 1221.98 121.861L1224.84 117.16ZM1210.15 111.832L1209.47 117.29C1209.55 117.3 1209.63 117.308 1209.71 117.314L1210.15 111.832ZM1188.98 115.432L1185.88 110.89C1185.86 110.902 1185.85 110.914 1185.83 110.926L1188.98 115.432ZM1179.48 126.232L1174.67 123.57C1174.66 123.582 1174.65 123.594 1174.65 123.606L1179.48 126.232ZM1174.15 141.64L1168.75 140.578C1168.75 140.607 1168.74 140.635 1168.74 140.664L1174.15 141.64ZM1174.15 179.368L1168.73 180.272L1168.73 180.286L1174.15 179.368ZM1179.33 196.072L1174.4 198.493C1174.41 198.519 1174.42 198.544 1174.43 198.57L1179.33 196.072ZM1189.27 207.88L1186.05 212.341C1186.08 212.358 1186.1 212.374 1186.12 212.391L1189.27 207.88ZM1212.74 211.192L1211.49 205.836L1211.49 205.836L1212.74 211.192ZM1221.38 208.456L1219.4 203.327C1219.38 203.334 1219.36 203.342 1219.34 203.349L1221.38 208.456ZM1230.02 204.424L1227.43 199.571C1227.41 199.583 1227.39 199.596 1227.37 199.608L1230.02 204.424ZM1238.09 199.528L1242.86 196.789C1242.09 195.454 1240.8 194.502 1239.3 194.163C1237.8 193.824 1236.22 194.13 1234.96 195.006L1238.09 199.528ZM1254.21 227.608L1257.32 232.146C1259.69 230.525 1260.41 227.356 1258.98 224.869L1254.21 227.608ZM1230.89 239.128L1229.13 233.916L1229.13 233.916L1230.89 239.128ZM1168.82 236.392L1166.38 241.321C1166.4 241.328 1166.41 241.334 1166.42 241.34L1168.82 236.392ZM1129.8 190.168L1135.04 188.502L1129.8 190.168ZM1129.65 129.112L1134.87 130.867L1134.87 130.867L1129.65 129.112ZM1144.05 104.2L1139.96 100.533L1139.95 100.536L1144.05 104.2ZM1168.53 86.776L1170.75 91.808C1170.76 91.8047 1170.77 91.8013 1170.78 91.7979L1168.53 86.776ZM1231.46 85.336L1229.34 90.4094C1229.36 90.4164 1229.37 90.4234 1229.39 90.4303L1231.46 85.336ZM1254.93 102.616L1258.77 106.557C1260.89 104.492 1261 101.118 1259.01 98.9235L1254.93 102.616ZM1237.01 119.83C1233.92 116.835 1230.81 114.351 1227.69 112.459L1221.98 121.861C1224.24 123.233 1226.71 125.165 1229.37 127.738L1237.01 119.83ZM1227.77 112.506C1224.91 110.703 1222.05 109.263 1219.21 108.241L1215.49 118.591C1217.45 119.297 1219.59 120.353 1221.91 121.814L1227.77 112.506ZM1219.21 108.241C1216.38 107.222 1213.5 106.583 1210.59 106.35L1209.71 117.314C1211.6 117.465 1213.52 117.882 1215.49 118.591L1219.21 108.241ZM1210.83 106.374C1208.3 106.058 1205.77 105.9 1203.24 105.9V116.9C1205.31 116.9 1207.39 117.03 1209.47 117.29L1210.83 106.374ZM1203.24 105.9C1196.75 105.9 1190.88 107.478 1185.88 110.89L1192.08 119.974C1194.96 118.01 1198.59 116.9 1203.24 116.9V105.9ZM1185.83 110.926C1181.24 114.141 1177.53 118.399 1174.67 123.57L1184.29 128.894C1186.42 125.041 1189.05 122.099 1192.14 119.938L1185.83 110.926ZM1174.65 123.606C1171.94 128.593 1169.99 134.275 1168.75 140.578L1179.55 142.702C1180.61 137.293 1182.22 132.703 1184.31 128.858L1174.65 123.606ZM1168.74 140.664C1167.62 146.862 1167.07 153.286 1167.07 159.928H1178.07C1178.07 153.898 1178.57 148.13 1179.56 142.616L1168.74 140.664ZM1167.07 159.928C1167.07 166.846 1167.62 173.628 1168.73 180.272L1179.58 178.464C1178.57 172.436 1178.07 166.258 1178.07 159.928H1167.07ZM1168.73 180.286C1169.86 186.966 1171.73 193.053 1174.4 198.493L1184.27 193.651C1182.14 189.299 1180.56 184.25 1179.57 178.45L1168.73 180.286ZM1174.43 198.57C1177.3 204.181 1181.16 208.814 1186.05 212.341L1192.49 203.419C1189.12 200.994 1186.37 197.755 1184.23 193.574L1174.43 198.57ZM1186.12 212.391C1191.36 216.045 1197.66 217.7 1204.68 217.7V206.7C1199.41 206.7 1195.44 205.475 1192.42 203.369L1186.12 212.391ZM1204.68 217.7C1207.66 217.7 1210.78 217.299 1213.99 216.548L1211.49 205.836C1208.95 206.429 1206.69 206.7 1204.68 206.7V217.7ZM1213.99 216.548C1217.16 215.81 1220.3 214.813 1223.43 213.563L1219.34 203.349C1216.71 204.403 1214.09 205.23 1211.49 205.836L1213.99 216.548ZM1223.37 213.585C1226.57 212.344 1229.68 210.896 1232.68 209.24L1227.37 199.608C1224.8 201.024 1222.14 202.264 1219.4 203.327L1223.37 213.585ZM1232.61 209.277C1235.66 207.649 1238.53 205.907 1241.22 204.05L1234.96 195.006C1232.65 196.605 1230.14 198.127 1227.43 199.571L1232.61 209.277ZM1233.32 202.267L1249.45 230.347L1258.98 224.869L1242.86 196.789L1233.32 202.267ZM1251.11 223.07C1244.54 227.568 1237.22 231.188 1229.13 233.916L1232.64 244.34C1241.64 241.308 1249.87 237.248 1257.32 232.146L1251.11 223.07ZM1229.13 233.916C1221.22 236.583 1212.46 237.948 1202.81 237.948V248.948C1213.5 248.948 1223.47 247.433 1232.64 244.34L1229.13 233.916ZM1202.81 237.948C1190.51 237.948 1180.03 235.718 1171.22 231.444L1166.42 241.34C1177 246.474 1189.18 248.948 1202.81 248.948V237.948ZM1171.26 231.463C1162.22 226.985 1154.73 221.118 1148.72 213.873L1140.25 220.895C1147.3 229.394 1156.04 236.199 1166.38 241.321L1171.26 231.463ZM1148.72 213.873C1142.67 206.575 1138.1 198.137 1135.04 188.502L1124.56 191.834C1128.02 202.743 1133.25 212.449 1140.25 220.895L1148.72 213.873ZM1135.04 188.502C1131.95 178.782 1130.4 168.689 1130.4 158.2H1119.4C1119.4 169.791 1121.12 181.01 1124.56 191.834L1135.04 188.502ZM1130.4 158.2C1130.4 148.809 1131.89 139.706 1134.87 130.867L1124.44 127.357C1121.08 137.334 1119.4 147.623 1119.4 158.2H1130.4ZM1134.87 130.867C1137.8 122.144 1142.23 114.494 1148.16 107.864L1139.95 100.536C1133.01 108.306 1127.84 117.264 1124.44 127.357L1134.87 130.867ZM1148.15 107.867C1154.11 101.207 1161.61 95.8418 1170.75 91.808L1166.31 81.7439C1155.87 86.3502 1147.05 92.6006 1139.96 100.533L1148.15 107.867ZM1170.78 91.7979C1179.81 87.7634 1190.68 85.652 1203.53 85.652V74.652C1189.49 74.652 1177.03 76.9566 1166.29 81.7541L1170.78 91.7979ZM1203.53 85.652C1213.28 85.652 1221.85 87.276 1229.34 90.4094L1233.59 80.2626C1224.56 76.484 1214.51 74.652 1203.53 74.652V85.652ZM1229.39 90.4303C1236.72 93.4148 1243.89 98.6194 1250.86 106.309L1259.01 98.9235C1251.19 90.2926 1242.71 83.9772 1233.54 80.2417L1229.39 90.4303ZM1251.1 98.6751L1229.35 119.843L1237.03 127.725L1258.77 106.557L1251.1 98.6751ZM1282.44 241H1276.94C1276.94 244.038 1279.4 246.5 1282.44 246.5V241ZM1282.44 39.832H1287.94C1287.94 39.634 1287.93 39.4362 1287.91 39.2394L1282.44 39.832ZM1279.27 10.6L1278.75 5.1244C1277.29 5.26288 1275.94 5.98284 1275.01 7.12325C1274.08 8.26367 1273.64 9.72938 1273.8 11.1926L1279.27 10.6ZM1326.5 6.13599H1332C1332 4.58729 1331.35 3.11036 1330.2 2.06805C1329.06 1.02575 1327.53 0.514673 1325.99 0.660395L1326.5 6.13599ZM1326.5 130.264H1321C1321 132.599 1322.48 134.68 1324.68 135.454C1326.88 136.227 1329.34 135.525 1330.8 133.701L1326.5 130.264ZM1364.66 82.6V77.1C1362.99 77.1 1361.41 77.8588 1360.37 79.1626L1364.66 82.6ZM1413.77 82.6L1417.84 86.2906C1419.3 84.6781 1419.68 82.3572 1418.79 80.3693C1417.91 78.3815 1415.94 77.1 1413.77 77.1V82.6ZM1361.64 140.2L1363.49 145.378C1364.34 145.073 1365.11 144.562 1365.72 143.891L1361.64 140.2ZM1332.26 150.712L1330.41 145.534C1328.2 146.324 1326.74 148.427 1326.76 150.772C1326.79 153.117 1328.3 155.188 1330.52 155.93L1332.26 150.712ZM1359.48 159.784L1363.67 156.228C1363.02 155.46 1362.17 154.885 1361.22 154.566L1359.48 159.784ZM1428.31 241V246.5C1430.45 246.5 1432.4 245.256 1433.3 243.312C1434.2 241.368 1433.89 239.078 1432.51 237.444L1428.31 241ZM1378.2 241L1373.87 244.393C1374.91 245.723 1376.51 246.5 1378.2 246.5V241ZM1326.5 175.048L1330.83 171.655C1329.38 169.809 1326.93 169.084 1324.71 169.849C1322.49 170.615 1321 172.702 1321 175.048H1326.5ZM1326.5 241V246.5C1329.54 246.5 1332 244.038 1332 241H1326.5ZM1287.94 241V39.832H1276.94V241H1287.94ZM1287.91 39.2394L1284.74 10.0074L1273.8 11.1926L1276.97 40.4246L1287.91 39.2394ZM1279.79 16.0756L1327.02 11.6116L1325.99 0.660395L1278.75 5.1244L1279.79 16.0756ZM1321 6.13599V130.264H1332V6.13599H1321ZM1330.8 133.701L1368.96 86.0374L1360.37 79.1626L1322.21 126.827L1330.8 133.701ZM1364.66 88.1H1413.77V77.1H1364.66V88.1ZM1409.69 78.9094L1357.56 136.509L1365.72 143.891L1417.84 86.2906L1409.69 78.9094ZM1359.79 135.022L1330.41 145.534L1334.12 155.89L1363.49 145.378L1359.79 135.022ZM1330.52 155.93L1357.74 165.002L1361.22 154.566L1334 145.494L1330.52 155.93ZM1355.28 163.34L1424.11 244.556L1432.51 237.444L1363.67 156.228L1355.28 163.34ZM1428.31 235.5H1378.2V246.5H1428.31V235.5ZM1382.53 237.607L1330.83 171.655L1322.17 178.441L1373.87 244.393L1382.53 237.607ZM1321 175.048V241H1332V175.048H1321ZM1326.5 235.5H1282.44V246.5H1326.5V235.5Z" fill="#A8DADC"/>
</svg>
